<svg id="visual" viewBox="0 0 900 600" width="900" height="600" xmlns="http://www.w3.org/2000/svg" xmlns:xlink="http://www.w3.org/1999/xlink" version="1.1"><rect x="0" y="0" width="900" height="600" fill="#0066FF"></rect><path d="M0 27L5.8 28.3C11.7 29.7 23.3 32.3 34.8 31.5C46.3 30.7 57.7 26.3 69.2 27C80.7 27.7 92.3 33.3 103.8 32.7C115.3 32 126.7 25 138.2 24C149.7 23 161.3 28 173 29.7C184.7 31.3 196.3 29.7 207.8 30.2C219.3 30.7 230.7 33.3 242.2 34.2C253.7 35 265.3 34 277 31.7C288.7 29.3 300.3 25.7 311.8 26.3C323.3 27 334.7 32 346.2 32.8C357.7 33.7 369.3 30.3 380.8 31.2C392.3 32 403.7 37 415.2 38.7C426.7 40.3 438.3 38.7 450 37.2C461.7 35.7 473.3 34.3 484.8 33C496.3 31.7 507.7 30.3 519.2 30.5C530.7 30.7 542.3 32.3 553.8 33C565.3 33.7 576.7 33.3 588.2 34.7C599.7 36 611.3 39 623 37.5C634.7 36 646.3 30 657.8 25.5C669.3 21 680.7 18 692.2 17C703.7 16 715.3 17 727 21.8C738.7 26.7 750.3 35.3 761.8 38.2C773.3 41 784.7 38 796.2 33.7C807.7 29.3 819.3 23.7 830.8 25.2C842.3 26.7 853.7 35.3 865.2 34.8C876.7 34.3 888.3 24.7 894.2 19.8L900 15L900 0L894.2 0C888.3 0 876.7 0 865.2 0C853.7 0 842.3 0 830.8 0C819.3 0 807.7 0 796.2 0C784.7 0 773.3 0 761.8 0C750.3 0 738.7 0 727 0C715.3 0 703.7 0 692.2 0C680.7 0 669.3 0 657.8 0C646.3 0 634.7 0 623 0C611.3 0 599.7 0 588.2 0C576.7 0 565.3 0 553.8 0C542.3 0 530.7 0 519.2 0C507.7 0 496.3 0 484.8 0C473.3 0 461.7 0 450 0C438.3 0 426.7 0 415.2 0C403.7 0 392.3 0 380.8 0C369.3 0 357.7 0 346.2 0C334.7 0 323.3 0 311.8 0C300.3 0 288.7 0 277 0C265.3 0 253.7 0 242.2 0C230.7 0 219.3 0 207.8 0C196.3 0 184.7 0 173 0C161.3 0 149.7 0 138.2 0C126.7 0 115.3 0 103.8 0C92.3 0 80.7 0 69.2 0C57.7 0 46.3 0 34.8 0C23.3 0 11.7 0 5.8 0L0 0Z" fill="#002233" stroke-linecap="round" stroke-linejoin="miter"></path></svg>