<svg id="visual" viewBox="0 0 960 540" width="960" height="540" xmlns="http://www.w3.org/2000/svg" xmlns:xlink="http://www.w3.org/1999/xlink" version="1.1"><rect x="0" y="0" width="960" height="540" fill="#001220"></rect><defs><linearGradient id="grad1_0" x1="43.8%" y1="0%" x2="100%" y2="100%"><stop offset="14.444444444444446%" stop-color="#001220" stop-opacity="1"></stop><stop offset="85.55555555555554%" stop-color="#001220" stop-opacity="1"></stop></linearGradient></defs><defs><linearGradient id="grad2_0" x1="0%" y1="0%" x2="56.3%" y2="100%"><stop offset="14.444444444444446%" stop-color="#001220" stop-opacity="1"></stop><stop offset="85.55555555555554%" stop-color="#001220" stop-opacity="1"></stop></linearGradient></defs><g transform="translate(960, 0)"><path d="M0 486C-64.6 481 -129.2 476 -186 449C-242.8 422 -291.9 372.9 -320.3 320.3C-348.7 267.7 -356.5 211.6 -380.6 157.7C-404.8 103.7 -445.4 51.8 -486 0L0 0Z" fill="#0066FF"></path></g><g transform="translate(0, 540)"><path d="M0 -486C53.2 -446.4 106.3 -406.8 157.3 -379.7C208.3 -352.6 257 -337.9 309.7 -309.7C362.4 -281.5 419 -239.9 449 -186C479 -132.1 482.5 -66.1 486 0L0 0Z" fill="#0066FF"></path></g></svg>