<svg id="visual" viewBox="0 0 900 600" width="900" height="600" xmlns="http://www.w3.org/2000/svg" xmlns:xlink="http://www.w3.org/1999/xlink" version="1.1"><rect x="0" y="0" width="900" height="600" fill="#002233"></rect><path d="M0 119L21.5 116.5C43 114 86 109 128.8 108.3C171.7 107.7 214.3 111.3 257.2 127.7C300 144 343 173 385.8 167.5C428.7 162 471.3 122 514.2 103.7C557 85.3 600 88.7 642.8 104.5C685.7 120.3 728.3 148.7 771.2 162.8C814 177 857 177 878.5 177L900 177L900 0L878.5 0C857 0 814 0 771.2 0C728.3 0 685.7 0 642.8 0C600 0 557 0 514.2 0C471.3 0 428.7 0 385.8 0C343 0 300 0 257.2 0C214.3 0 171.7 0 128.8 0C86 0 43 0 21.5 0L0 0Z" fill="#0066FF" stroke-linecap="round" stroke-linejoin="miter"></path></svg>